<svg width="138" height="138" viewBox="0 0 138 138" fill="none" xmlns="http://www.w3.org/2000/svg">
<path d="M46 138H15.3333C11.1167 138 7.50694 136.499 4.50417 133.496C1.50139 130.493 0 126.883 0 122.667V69C0 59.4167 1.82083 50.4403 5.4625 42.0708C9.10417 33.7014 14.0236 26.4181 20.2208 20.2208C26.4181 14.0236 33.7014 9.10417 42.0708 5.4625C50.4403 1.82083 59.4167 0 69 0C78.5833 0 87.5597 1.82083 95.9292 5.4625C104.299 9.10417 111.582 14.0236 117.779 20.2208C123.976 26.4181 128.896 33.7014 132.537 42.0708C136.179 50.4403 138 59.4167 138 69V122.667C138 126.883 136.499 130.493 133.496 133.496C130.493 136.499 126.883 138 122.667 138H92V76.6667H122.667V69C122.667 54.05 117.46 41.3681 107.046 30.9542C96.6319 20.5403 83.95 15.3333 69 15.3333C54.05 15.3333 41.3681 20.5403 30.9542 30.9542C20.5403 41.3681 15.3333 54.05 15.3333 69V76.6667H46V138ZM30.6667 92H15.3333V122.667H30.6667V92ZM107.333 92V122.667H122.667V92H107.333Z" fill="#D93DAF" fill-opacity="0.5"/>
</svg>
